<?xml version="1.0" encoding="UTF-8"?>
<svg xmlns="http://www.w3.org/2000/svg" version="1.1" viewBox="0 0 375 375">
  <defs>
    <style>
      .cls-1 {
        fill: #1d76cf;
      }
    </style>
  </defs>
  <!-- Generator: Adobe Illustrator 28.6.0, SVG Export Plug-In . SVG Version: 1.2.0 Build 709)  -->
  <g>
    <g id="Camada_1">
      <path class="cls-1" d="M313.8,23.6c2,.5,4,1,6.1,1.3,16.5,2.6,29.9,10.5,40.4,23.4,8.3,10.1,13,21.6,14.3,34.7,1.9,18.5-3.3,34.6-15,48.9-11.2,13.7-25.9,21.4-43.3,23.1-17.8,1.8-34.2-2.7-48.4-14.3-13-10.5-21.1-24-23.5-40.4-3.1-20.8,2.2-39.3,16.5-55.1,10.7-11.8,24.1-18.1,39.6-20.9,1.5-.2,2.9-.5,4.4-.9h8.9Z"/>
      <path class="cls-1" d="M231.7,73.2c.3,3.6.6,6.7.8,10,.9,20.8,6.4,40.2,19.4,56.7,9.8,12.4,22.5,20.9,38,24.8.4,0,.8.4,1.6.8-11.2,4-22.1,7.7-33,11.6-28.4,10-56.7,20-85.1,30-12.2,4.3-24.4,8.4-36.5,12.7-28.7,10.1-57.4,20.3-86.2,30.2-11,3.7-22.3,4.6-33.7.9-11.1-3.6-15.8-12-16.7-23-.6-7.4.2-14.6,3.1-21.5,4.5-10.6,11.9-18.5,22-23.8,19.6-10.5,39.3-20.8,58.9-31.2,11.3-6,22.7-12,34-18.1,18.2-9.6,36.2-19.2,54.4-28.9,11.4-6.1,22.8-12.1,34.2-18.1,7.6-4,15.2-8.1,22.8-12.2.5-.2,1-.5,1.9-.8h0Z"/>
      <path class="cls-1" d="M350.2,224c0,1.2.2,2.1.2,3v60c0,2.2-.2,3.3-2.9,3.5-9.9.9-19.9,2.1-29.8,3.3-10.6,1.2-21.3,2.6-32,3.8-9,1-18.1,1.9-27.1,2.9-9.2,1-18.4,2.2-27.5,3.3-7.4.9-14.7,1.6-22.1,2.3-7.5.9-15.1,1.9-22.6,2.7-7.4.9-14.7,1.6-22.1,2.3-7.5.9-15.1,1.9-22.6,2.6-7.4.9-14.7,1.6-22.1,2.3-7.5.9-15.1,1.8-22.6,2.6-7.4.9-14.7,1.6-22.1,2.3-7.5.9-15.1,1.8-22.6,2.6-5,.5-9.9,1-14.9,1.5-4-6.9-4.1-20.1,4.4-24,4.2-1.9,8.8-2.8,13.3-4,15.1-3.8,30.1-7.4,45.1-11.2,58.2-14.5,116.4-29.1,174.6-43.7,23.9-6,47.9-11.9,71.8-17.8,1.1-.2,2.1-.5,3.5-.9v.2Z"/>
      <path class="cls-1" d="M352.6,155.6v42.1c0,2.1-.2,4.3-.5,6.4-.9,6.9-5,9.8-11.3,11.3-11.4,2.6-22.7,5.3-34.1,8.1-54.1,13.5-108.2,27.1-162.2,40.6-34.4,8.6-68.9,17.2-103.3,25.9-2,.5-3.2.2-4.1-1.6-2.9-5.5-5.3-11.1-2-17.4,1.9-3.6,5-5.4,8.6-6.7,16.1-6,32.2-12,48.3-17.8,25.6-9.1,51.3-18.1,77-27.1,18.2-6.4,36.2-12.7,54.4-19,25.7-8.9,51.4-17.8,77-26.8,16.4-5.7,32.7-11.5,49.2-17.1.9-.3,1.7-.5,3-.8h0Z"/>
      <path class="cls-1" d="M192.5,351.3H39c-2.6,0-4-1.3-4-4v-6.7c0-4.2,2.5-6.4,6.6-6.7,6.9-.5,13.8-1.4,20.7-2.1,6-.6,11.9-1.2,18-1.8,8-.9,16-1.8,24-2.6,5.9-.6,11.8-1.2,17.7-1.8,7.6-.9,15.3-1.8,22.9-2.6,5.7-.6,11.4-1.2,17.1-1.9,7.5-.9,15.1-1.8,22.6-2.6,5.7-.6,11.4-1.2,17.1-1.9,7.8-.9,15.4-1.8,23.2-2.6,7.1-.8,14.4-1.6,21.6-2.4,7.5-.9,15.1-1.8,22.6-2.6,7.1-.9,14.4-1.6,21.6-2.4,7.5-.9,15.1-1.8,22.6-2.6l16.5-1.9c6.1-.7,12.1-1.4,18.2-2.1,1.7-.2,2.4.3,2.4,2v46.9c0,1.6-.5,2.5-2.2,2.3h-155.7Z"/>
    </g>
  </g>
</svg>